<?xml version="1.0" standalone="no"?>
<!DOCTYPE svg PUBLIC "-//W3C//DTD SVG 1.1//EN" "http://www.w3.org/Graphics/SVG/1.1/DTD/svg11.dtd">
<svg xmlns="http://www.w3.org/2000/svg" viewBox="0 0 1679.13 1727.53" width="1679.1300048828125" height="1727.530029296875"><defs><style>.cls-1{fill:#c79f7d;}.cls-2{fill:#010101;stroke:#c79f7d;stroke-miterlimit:10;stroke-width:7px;}</style></defs><title>Asset 2</title><g id="Layer_2" data-name="Layer 2"><g id="Layer_3" data-name="Layer 3"><path class="cls-1" d="M486.26,1299v3.56H447.07v87.28c-33.84,46.67-88.7,121.12-204.83,121.12C88.7,1510.93,0,1399.07,0,1236.63s108.3-274.3,252.93-274.3c44.53,0,85.49,16.74,117.2,44.17l57-37H430v151.4h-3.2C419.29,1038.56,344.83,968,261.12,968c-115.06,0-157.81,138.93-157.81,268.6s27.43,271.09,138.93,271.09c74.1,0,99.75-70.18,108.65-93V1302.53H276.08V1299Z"/><path class="cls-1" d="M558.58,1500.6V972.66H499.09v-3.21H640.16V1500.6h59.13v3.2H499.09v-3.2Z"/><path class="cls-1" d="M907,1168.94c104,0,168.5,78.38,168.5,171s-64.48,171-168.5,171-168.5-78.37-168.5-171S803,1168.94,907,1168.94Zm0,338.78c65.19,0,77.66-91.91,77.66-167.78S972.17,1172.15,907,1172.15s-78,91.91-78,167.79S841.79,1507.72,907,1507.72Z"/><path class="cls-1" d="M1406.77,1168.94h26.72l73.74,236.19,75.52-225.86h-71.6v-3.2h141.07v3.2h-65.55l-111.14,331.66h-15.68l-89.77-246.52-104.37,246.52h-16l-107.23-331.66h-42v-3.2h187v3.2H1228.3L1300.62,1419Z"/><path class="cls-1" d="M137,1623.3h-5.69v62.83h17.23c22.6,0,34.88-15.42,37.36-36.36h.82v37.1H90.86v-.74H105.7v-122.2H90.86v-.74h94.08V1597h-.74c-2.47-17.64-14.76-33.06-34.06-33.06H131.26v58.63H137c9.4,0,19.21-8.42,21.69-19.46h.82v40.4h-.82C156.16,1632.45,146.35,1623.3,137,1623.3Z"/><path class="cls-1" d="M198.71,1688.52v-25.64h.75c4.2,15.09,16,24.82,31.17,24.82,10.55,0,18.06-4.54,18.06-12.78,0-18.31-48.33-9.49-48.33-41.73,0-13,9.82-23.66,25.48-23.66a29,29,0,0,1,18.89,6.84l9.81-7h.66v23.09h-.74c-3.38-10.55-12.87-22.18-28.53-22.18-9.24,0-14.93,4.53-14.93,10.72,0,17.89,50,10.8,50,41.72,0,17.15-14.68,25.81-29.77,25.81a32.21,32.21,0,0,1-21.77-7.91l-10,7.91Z"/><path class="cls-1" d="M299.23,1688c-16,0-19.21-8.74-19.21-20.29v-56H268.07V1611H280v-16.49c7.42,0,17.32-1.65,23.09-5V1611h17.65v.74H303.11v61.11c0,8.24,1.81,11.38,6.27,11.38,5.36,0,12-5.37,15.66-14.19l.75.25C321.75,1680.69,312.59,1688,299.23,1688Z"/><path class="cls-1" d="M373.53,1688.52c-23.25,0-40.49-14-40.49-39.58s16.74-39.58,39.91-39.58c24.58,0,36.12,16.66,36.12,34.63H358.69c-.08,1.08-.08,2.23-.08,3.3,0,21.28,3.46,39.75,18.88,39.75,15.58,0,26.88-10.06,31-23.58h.83C405,1677.72,393.4,1688.52,373.53,1688.52ZM350,1573.25c3.05-4.62,12.53-6.52,17.23,1.4L381,1595.26l-.41.5-23.17-6.85C349.37,1587.43,346.57,1578.52,350,1573.25Zm8.66,70h25.89c0-14.35-1.15-33.15-11.63-33.15S359.1,1625.94,358.69,1643.25Z"/><path class="cls-1" d="M447.91,1688c-16,0-19.21-8.74-19.21-20.29v-56h-12V1611h12v-16.49c7.42,0,17.31-1.65,23.09-5V1611h17.64v.74H451.79v61.11c0,8.24,1.81,11.38,6.26,11.38,5.36,0,12-5.37,15.67-14.19l.74.25C470.42,1680.69,461.27,1688,447.91,1688Z"/><path class="cls-1" d="M490.87,1686.13v-74.38h-10.8V1611H514v75.12h10.72v.74H480.07v-.74Zm9.9-124.59a14,14,0,1,1-14,14A13.79,13.79,0,0,1,500.77,1561.54Z"/><path class="cls-1" d="M572.34,1688.52c-22.43,0-40.07-12.78-40.07-39.58,0-23.5,14.59-39.58,40.32-39.58,19.3,0,32.24,10,32.24,22.68,0,8-5.94,12.86-13,12.86-6.18,0-13.52-4-13.52-12.7,0-7.83,6.43-12.45,13.52-12.45a13.12,13.12,0,0,1,10.72,5.11c-4-8.82-15.25-14-24.9-14-16.08,0-18.14,22.59-18.14,38.09,0,18.89,3.3,37.44,18.55,37.44,13.44,0,22.35-9.24,26.47-23h.83C601,1678.3,591.06,1688.52,572.34,1688.52Z"/><path class="cls-1" d="M666.92,1645.23v-8.57c0-11.88-2.14-25.81-15.33-25.81-7.42,0-17.32,2.39-22.51,7.83a14.2,14.2,0,0,1,8.65-2.89c7.18,0,13.53,4,13.53,11.22,0,7.83-6.52,11.87-13.53,11.87-7.5,0-13.11-4.37-13.11-11.54,0-12.29,16.08-17.65,31.09-17.65,25.15,0,34.3,11.55,34.3,27v42.21c0,3.63,1.57,6.6,5.94,6.6,3.13,0,8.49-2.8,11.46-9.07l.5.41c-3.3,7.51-11.71,11.71-22.1,11.71-10.64,0-18.89-3.79-18.89-14.43v-8.66c-2.14,14.6-10.3,23.09-24.57,23.09s-23.5-7.83-23.5-20.36c0-14.68,13.19-22.93,36.61-22.93Zm0,11.88v-11.22h-5.85c-12.45,0-17.07,12-17.07,20.2,0,7.84,2.31,15.75,9.32,15.75C660.66,1681.84,666.92,1674.09,666.92,1657.11Z"/><path class="cls-1" d="M803.81,1645.23v-8.57c0-11.88-2.14-25.81-15.34-25.81-7.42,0-17.31,2.39-22.51,7.83a14.23,14.23,0,0,1,8.66-2.89c7.17,0,13.52,4,13.52,11.22,0,7.83-6.51,11.87-13.52,11.87-7.5,0-13.11-4.37-13.11-11.54,0-12.29,16.08-17.65,31.09-17.65,25.15,0,34.3,11.55,34.3,27v42.21c0,3.63,1.57,6.6,5.94,6.6,3.13,0,8.49-2.8,11.46-9.07l.49.41c-3.3,7.51-11.71,11.71-22.1,11.71-10.63,0-18.88-3.79-18.88-14.43v-8.66c-2.14,14.6-10.31,23.09-24.57,23.09s-23.5-7.83-23.5-20.36c0-14.68,13.19-22.93,36.61-22.93Zm0,11.88v-11.22H798c-12.46,0-17.07,12-17.07,20.2,0,7.84,2.31,15.75,9.31,15.75C797.54,1681.84,803.81,1674.09,803.81,1657.11Z"/><path class="cls-1" d="M919,1611.75H903.26V1611h30.26v.74H920l-31.25,76.77H882.4l-31.5-76.77H840.76V1611h48v.74H876.38l20.12,55.42Z"/><path class="cls-1" d="M986.88,1645.23v-8.57c0-11.88-2.15-25.81-15.34-25.81-7.42,0-17.32,2.39-22.51,7.83a14.23,14.23,0,0,1,8.66-2.89c7.17,0,13.52,4,13.52,11.22,0,7.83-6.51,11.87-13.52,11.87-7.51,0-13.11-4.37-13.11-11.54,0-12.29,16.07-17.65,31.08-17.65,25.15,0,34.31,11.55,34.31,27v42.21c0,3.63,1.56,6.6,5.93,6.6,3.14,0,8.49-2.8,11.46-9.07l.5.41c-3.3,7.51-11.71,11.71-22.1,11.71-10.64,0-18.88-3.79-18.88-14.43v-8.66c-2.15,14.6-10.31,23.09-24.58,23.09s-23.5-7.83-23.5-20.36c0-14.68,13.2-22.93,36.61-22.93Zm0,11.88v-11.22H981c-12.45,0-17.07,12-17.07,20.2,0,7.84,2.31,15.75,9.32,15.75C980.61,1681.84,986.88,1674.09,986.88,1657.11Z"/><path class="cls-1" d="M1042.54,1686.13v-74.38h-10.8V1611h33.8v27.79c1.74-14.35,7.76-29.44,27-29.44,18.47,0,23.42,10.56,23.42,24.9v51.87h10.8v.74h-42.22v-.74h8.33v-51.45c0-13.86-1.07-20.62-8-20.62-15.83,0-19.3,21.11-19.3,36v36h8.33v.74h-42.13v-.74Z"/><path class="cls-1" d="M1157.08,1705.67l12.78-17.31c-20.45-1.49-35.95-14.27-35.95-39.42,0-23.5,14.59-39.58,40.32-39.58,19.29,0,32.24,10,32.24,22.68,0,8-5.94,12.86-13,12.86-6.18,0-13.52-4-13.52-12.7,0-7.83,6.43-12.45,13.52-12.45a13.12,13.12,0,0,1,10.72,5.11c-4-8.82-15.25-14-24.9-14-16.08,0-18.14,22.59-18.14,38.09,0,18.89,3.3,37.44,18.55,37.44,13.44,0,22.35-9.24,26.47-23h.83c-4.29,14.93-14.27,25.15-33,25.15-1.07,0-2.14,0-3.13-.08l-7.83,10.64c15.83.49,27.54,4.12,27.54,13.36,0,8.24-7.92,15.09-32.82,15.09v-.75c9.73,0,14.51-4.78,14.51-11.13C1172.25,1707,1165.32,1705.67,1157.08,1705.67Z"/><path class="cls-1" d="M1268.56,1645.23v-8.57c0-11.88-2.14-25.81-15.33-25.81-7.42,0-17.32,2.39-22.51,7.83a14.2,14.2,0,0,1,8.65-2.89c7.18,0,13.53,4,13.53,11.22,0,7.83-6.52,11.87-13.53,11.87-7.5,0-13.11-4.37-13.11-11.54,0-12.29,16.08-17.65,31.09-17.65,25.15,0,34.3,11.55,34.3,27v42.21c0,3.63,1.57,6.6,5.94,6.6,3.13,0,8.49-2.8,11.46-9.07l.5.41c-3.3,7.51-11.71,11.71-22.1,11.71-10.64,0-18.89-3.79-18.89-14.43v-8.66c-2.14,14.6-10.3,23.09-24.57,23.09s-23.5-7.83-23.5-20.36c0-14.68,13.19-22.93,36.61-22.93Zm0,11.88v-11.22h-5.85c-12.45,0-17.07,12-17.07,20.2,0,7.84,2.31,15.75,9.32,15.75C1262.3,1681.84,1268.56,1674.09,1268.56,1657.11Z"/><path class="cls-1" d="M1408.09,1686.87H1374.2v-27.13c-2.48,18.31-11.38,28.7-25.73,28.7-18,0-35-14.68-35-39.42s17-39.58,35-39.58c14.26,0,23.25,10.56,25.73,28.87v-74.38h-10.81v-.74h33.9v122.94h10.8Zm-54.59-75c-9.65,0-13.61,13.52-13.61,37.18s4,37,13.61,37c10.47,0,20.7-12.12,20.7-37S1364,1611.84,1353.5,1611.84Z"/><path class="cls-1" d="M1464.25,1645.23v-8.57c0-11.88-2.15-25.81-15.34-25.81-7.42,0-17.32,2.39-22.51,7.83a14.23,14.23,0,0,1,8.66-2.89c7.17,0,13.52,4,13.52,11.22,0,7.83-6.52,11.87-13.52,11.87-7.51,0-13.12-4.37-13.12-11.54,0-12.29,16.08-17.65,31.09-17.65,25.15,0,34.3,11.55,34.3,27v42.21c0,3.63,1.57,6.6,5.94,6.6,3.13,0,8.49-2.8,11.46-9.07l.5.41c-3.3,7.51-11.71,11.71-22.1,11.71-10.64,0-18.88-3.79-18.88-14.43v-8.66c-2.15,14.6-10.31,23.09-24.58,23.09s-23.5-7.83-23.5-20.36c0-14.68,13.2-22.93,36.61-22.93Zm0,11.88v-11.22h-5.86c-12.45,0-17.07,12-17.07,20.2,0,7.84,2.31,15.75,9.32,15.75C1458,1681.84,1464.25,1674.09,1464.25,1657.11Z"/><line class="cls-2" x1="1083.42" x2="1083.42" y2="693.49"/><line class="cls-2" x1="1423.99" y1="46.9" x2="1098.23" y2="693.49"/><line class="cls-2" x1="1627.19" y1="318.37" x2="1108.94" y2="708.3"/><line class="cls-2" x1="1678.49" y1="616.87" x2="1108.47" y2="723.06"/><line class="cls-2" x1="1601.78" y1="876.18" x2="1087.76" y2="724.54"/><line class="cls-2" x1="1441.73" y1="1054.2" x2="1092.98" y2="731.37"/><line class="cls-2" x1="1239.23" y1="1130.88" x2="1093.67" y2="740.27"/><line class="cls-2" x1="1045.68" y1="1110.66" x2="1088.94" y2="708.54"/><line class="cls-2" x1="899.06" y1="1016.71" x2="1076.33" y2="744.98"/><line class="cls-2" x1="819.24" y1="884.41" x2="1061.56" y2="739.56"/><line class="cls-2" x1="812.79" y1="745.32" x2="1059.25" y2="728.71"/><line class="cls-2" x1="857.21" y1="629.32" x2="1076.85" y2="723.1"/><line class="cls-2" x1="942.58" y1="561.11" x2="1070.31" y2="707.54"/><line class="cls-2" x1="1037.49" y1="535.51" x2="1083.06" y2="710.43"/><circle class="cls-1" cx="1083.73" cy="727" r="49.56"/><line class="cls-2" x1="1121.65" y1="555.52" x2="1088.96" y2="703.1"/><line class="cls-2" x1="1175.48" y1="611.81" x2="1086.61" y2="723.7"/><line class="cls-2" x1="1203.75" y1="673.63" x2="1098.41" y2="722.93"/><line class="cls-2" x1="1202.69" y1="736.91" x2="1086.32" y2="724.64"/><line class="cls-2" x1="1175.79" y1="776.72" x2="1077.18" y2="720.69"/><line class="cls-2" x1="1138.81" y1="802.89" x2="1097.25" y2="743.17"/><line class="cls-2" x1="1097.46" y1="806.91" x2="1088.39" y2="737.56"/><line class="cls-2" x1="1060.6" y1="799.69" x2="1077.18" y2="751"/><line class="cls-2" x1="1033.16" y1="773.53" x2="1073.34" y2="738.99"/><line class="cls-2" x1="1024.82" y1="745.31" x2="1086.15" y2="724.11"/><line class="cls-2" x1="1029.22" y1="719.58" x2="1082.84" y2="727.41"/><line class="cls-2" x1="1047.15" y1="696.04" x2="1086.44" y2="729.23"/><line class="cls-2" x1="1065.92" y1="687.45" x2="1087.5" y2="726.15"/></g></g></svg>